<svg width="44" height="45" viewBox="0 0 44 45" fill="none" xmlns="http://www.w3.org/2000/svg">
<rect y="0.5" width="44" height="44" rx="10" fill="#92929D"/>
<path fill-rule="evenodd" clip-rule="evenodd" d="M20 17.5L30 17.5V19.0351C28.8044 19.7267 28 21.0194 28 22.5C28 23.9806 28.8044 25.2733 30 25.9649V27.5H20V26.5C20 25.9477 19.5523 25.5 19 25.5C18.4477 25.5 18 25.9477 18 26.5V27.5H14L14 25.9649C15.1956 25.2733 16 23.9806 16 22.5C16 21.0194 15.1956 19.7267 14 19.0351V17.5H18V18.5C18 19.0523 18.4477 19.5 19 19.5C19.5523 19.5 20 19.0523 20 18.5V17.5ZM19 29.5H14C12.8954 29.5 12 28.6046 12 27.5V26.5V24.5C13.1046 24.5 14 23.6046 14 22.5C14 21.3954 13.1046 20.5 12 20.5V18.5V17.5C12 16.3954 12.8954 15.5 14 15.5H19H30C31.1046 15.5 32 16.3954 32 17.5V18.5V20.5C30.8954 20.5 30 21.3954 30 22.5C30 23.6046 30.8954 24.5 32 24.5V26.5V27.5C32 28.6046 31.1046 29.5 30 29.5H19ZM19 20.5C19.5523 20.5 20 20.9477 20 21.5V23.5C20 24.0523 19.5523 24.5 19 24.5C18.4477 24.5 18 24.0523 18 23.5V21.5C18 20.9477 18.4477 20.5 19 20.5Z" fill="white"/>
</svg>
